<svg id="Layer_1" enable-background="new 0 0 500 500" viewBox="0 0 500 500" xmlns="http://www.w3.org/2000/svg"><g><path d="m399.755 329.894v54.213l-155.048 88.96v-179.669l60.979 90.479z" fill="#f7a63b"/><path d="m244.707 293.398v179.669l-155.093-88.96v-53.431l97.382 55.824z" fill="#ffb859"/><path d="m462.62 293.214-155.047 88.96-61.025-90.432 152.654-87.58 2.347-1.334.092-.046 1.519 2.255z" fill="#ffc16e"/><path d="m307.573 382.174-1.887 1.703-60.979-90.479 1.841-1.656z" fill="#ffcc8a"/><path d="m474.126 136.419-72.485 66.363-.092.046-2.347 1.334-154.495-88.637 74.371-68.02z" fill="#ffc16e"/><path d="m475 139.318-71.84 65.719-1.519-2.255 72.485-66.363z" fill="#f7a63b"/><path d="m89.292 203.978-1.702-.966-.967 1.565-61.623-86.889 1.749-1.841z" fill="#ffcc8a"/><path d="m244.707 115.525-154.816 88.822-.599-.369-62.543-88.131 155.093-88.914z" fill="#ffb859"/><path d="m242.683 291.972-57.712 93.102-155.047-88.96 56.699-91.537.967-1.565 1.702.966.599.369z" fill="#ffc16e"/><path d="m244.707 115.525-154.816 88.822 152.792 87.625 2.025 1.427 1.841-1.657 152.654-87.579zm0 170.786-142.713-81.826 142.713-81.827 142.667 81.827z" fill="#ffcc8a"/><path d="m387.375 204.485-142.668 81.826v-163.653z" fill="#ffb859"/><path d="m244.707 122.658v163.653l-142.713-81.826z" fill="#f7a63b"/><path d="m244.707 293.398-57.711 93.102-2.025-1.426 57.712-93.102z" fill="#f7a63b"/><path d="m307.573 382.174-1.887 1.703 154.819-88.847 2.115-1.816z" fill="#eb9e38"/></g></svg>