<svg id="Glyph" viewBox="0 0 64 64" xmlns="http://www.w3.org/2000/svg"><path d="m38 8s4 0 4 .00006c-.07239-2.6355-3.92694-2.6369-4-.00006z" fill="none"/><path d="m16 8s4 0 4 .00006c-.07239-2.6355-3.92694-2.6369-4-.00006z" fill="none"/><path d="m8.88 54.12c-2.06024-2.06622-3.72449-4.4563-4.88-7.10999v9.98999c0 1.64996 1.34998 3 3 3h44.00421c1.65002 0 3-1.35004 3-3v-2h-43.00421c-.79999 0-1.54999-.31-2.12-.88z"/><path d="m54.00421 12c0-2.21002-1.78998-4-4-4h-4.00421v3c-.03125 1.31555-1.97131 1.31372-2-.00006v-2.99994c0-2.21002-1.78998-4-4-4s-4 1.78998-4 4h-12v3c0 .54999-.45001 1-1 1s-1-.45001-1-1v-3c-.15723-5.28363-7.84033-5.28839-8 .00006 0-.00006-6-.00006-6-.00006-2.21002 0-4 1.78998-4 4v4h50.00421zm-38.00421-4c.07306-2.63684 3.92761-2.63544 4 .00006 0-.00006-4-.00006-4-.00006zm22 0c.07306-2.63684 3.92761-2.63544 4 .00006 0-.00006-4-.00006-4-.00006z"/><path d="m20.65613 37.20349-3.23865 7.56213c-.24951.58008.09912.99219.21191 1.10547.11328.1123.52441.46387 1.104.21191l7.56421-3.23944c-1.0517-.8255-2.07208-1.69031-3.01147-2.6297-.94434-.94434-1.80823-1.96307-2.63-3.01038z"/><path d="m21.55749 35.09888c.94989 1.30273 1.99438 2.55219 3.1427 3.70093 1.14062 1.1402 2.39111 2.18555 3.70148 3.1427l3.56958-1.52875-8.88495-8.88464z"/><path d="m59.71423 51.28998c-3.67999-3.67999-5.71002-8.57001-5.71002-13.77997v-19.51001h-50.00421v19.51001c0 5.73999 2.22998 11.13995 6.28998 15.19995.19.18005.44.29004.71002.29004h48.00421c.85376.02667 1.33844-1.11176.71002-1.71002zm-28.64978-20.2685 4.24268-4.24219c.39062-.39062 1.02344-.39062 1.41406 0s.39062 1.02344 0 1.41406l-4.24268 4.24219c-.19531.19531-.45117.29297-.70703.29297s-.51172-.09766-.70703-.29297c-.39062-.39062-.39062-1.02344 0-1.41406zm-4.24267-8.48535c-.39062-.39062-.39062-1.02344 0-1.41406s1.02344-.39062 1.41406 0c1.94922 1.94922 1.94922 5.12207 0 7.07129-.19531.19531-.45117.29297-.70703.29297s-.51172-.09766-.70703-.29297c-.39062-.39062-.39062-1.02344 0-1.41406 1.16943-1.16992 1.16943-3.07324 0-4.24316zm8.83838 20.15235c-.19531.19531-.45117.29297-.70703.29297s-.51172-.09766-.70703-.29297l-.75195-.75189-13.97217 5.98431c-.38477.16602-.78906.24609-1.18896.24707-.77783 0-1.54004-.30566-2.11768-.88281-.87451-.87402-1.12402-2.17285-.63574-3.30859l5.98322-13.97095-.75177-.75171c-.39062-.39062-.39062-1.02344 0-1.41406s1.02344-.39062 1.41406 0l1.2431 1.2431c.00043.00043.00092.00085.00134.00128l10.94476 10.94434c.00165.00165.00311.0033.00482.00488l1.24103 1.24097c.39062.39062.39062 1.02344 0 1.41406zm6.71777-6.00977c-.19531.19531-.45117.29297-.70703.29297s-.51172-.09766-.70703-.29297c-1.13379-1.13281-3.10889-1.13281-4.24268 0-.39062.39062-1.02344.39062-1.41406 0s-.39062-1.02344 0-1.41406c.94434-.94434 2.19971-1.46484 3.53564-1.46484 1.33545 0 2.59082.52051 3.53516 1.46484.39062.39062.39062 1.02344 0 1.41406z"/></svg>