<svg id="Layer_1" enable-background="new 0 0 16 16" height="16" viewBox="0 0 16 16" width="16" xmlns="http://www.w3.org/2000/svg"><g><path d="m15.089 2.083-1.172-1.172c-1.105-1.104-2.903-1.103-4.006 0l-2.19 2.19c.635.033 1.258.21 1.829.526l1.539-1.539c.455-.454 1.195-.454 1.65 0l1.172 1.172c.219.219.339.512.339.825s-.12.606-.339.825l-4.586 4.586c-.455.455-1.196.454-1.651.001l-.586-.586c-.325-.325-.853-.325-1.178 0-.326.325-.326.853 0 1.178l.586.586c.552.552 1.277.828 2.003.828.725 0 1.451-.276 2.003-.828l4.586-4.586c1.105-1.105 1.105-2.901.001-4.006z"/><path d="m4.911 13.911c-.455.455-1.195.455-1.65 0l-1.171-1.172c-.455-.455-.455-1.195 0-1.65l4.585-4.586c.455-.454 1.195-.455 1.65 0l.586.586c.326.325.854.325 1.178 0 .325-.326.325-.853 0-1.178l-.587-.587c-1.103-1.103-2.901-1.104-4.005 0l-4.586 4.587c-1.104 1.104-1.104 2.9 0 4.006l1.172 1.172c.533.533 1.245.827 2.003.827s1.47-.294 2.003-.827l2.191-2.19c-.635-.033-1.258-.211-1.83-.526z"/></g></svg>