<svg id="Layer_1" enable-background="new 0 0 512 512" height="512" viewBox="0 0 512 512" width="512" xmlns="http://www.w3.org/2000/svg"><path d="m256 62.9c-106.5 0-193.1 86.6-193.1 193.1 0 40.3 12.3 78.9 35.7 111.8l1.8 2.5-21.7 64.6 61.6-24.2 2.6 1.9c33.1 24 72.2 36.7 113.2 36.7 106.5 0 193.1-86.6 193.1-193.1s-86.7-193.3-193.2-193.3zm-43.4 141.6c-1.2 3.3-5.1 7.3-8.9 11.2-6.3 6.5-13.5 13.8-13 22.8.1 2 .4 7.4 21.7 29.2 13.3 13.6 28.1 26.6 40.7 35.6 21.1 15.1 30 15.1 34.9 13.7 8.9-2.5 13.5-9.9 17.6-16.4 3.8-6.1 6.3-9.8 10.2-10.5 9.6-1.7 42.7 11.3 53.4 22.7.5.6.8 1.3.6 2.1-1.4 9.3-6.7 32-24.7 42.8-12.8 7.7-30 7.8-51.1.3-79.3-28.1-132.3-76.8-149.2-137.2-9.1-32.4.8-50.3 10.7-59.6 9.5-8.9 20.5-11.5 25-11.5.7 0 1.3.1 1.6.2 2.5 1 10.3 9.7 19.1 25.4 8.6 15.5 11.9 26.7 11.4 29.2z"/></svg>